<svg xmlns="http://www.w3.org/2000/svg" viewBox="0 0 432 390" width="432" height="390">
	<defs>
		<clipPath clipPathUnits="userSpaceOnUse" id="cp1">
			<path d="M0 0L432 0L432 390L0 390Z" />
		</clipPath>
	</defs>
	<style>
		tspan { white-space:pre }
		.shp0 { fill: #000000 } 
	</style>
	<g id="Page 1" clip-path="url(#cp1)">
		<path id="Path 1" class="shp0" d="M130.24 155.91C128.66 155.07 127.45 157.26 128.87 158.27C166.04 184.74 206.08 218.69 212.96 266.33C181.31 241.95 145.74 223.3 114.37 198.5C88.07 177.7 56.38 154.39 44.91 121.6C44.21 119.61 40.68 119.78 41 122.13C45.03 152.31 77.42 178.65 99.59 196.31C136.14 225.43 175.62 248.9 214.86 274.11C216.36 275.08 218.79 273.83 218.62 271.95C213.95 222.35 172.61 178.48 130.24 155.91ZM205.28 90.78C203.41 89.79 202.04 92.33 203.66 93.54C226.49 110.58 247.65 126.2 262.79 150.95C275.37 171.55 280.82 195.16 282.17 218.99C277.59 206.79 272.78 195.37 265.11 183.96C255.54 169.72 243.03 157.34 229.31 147.12C210.11 132.81 192.17 117.18 173.73 101.93C156.06 87.31 135.31 75.48 118.9 59.54C117.56 58.24 115.83 60.13 116.91 61.52C129.12 77.24 146.49 88.41 161.78 100.89C178.68 114.68 194.59 129.64 211.95 142.88C227 154.36 241.57 165.19 253.71 179.88C265.61 194.3 276.04 213.35 282.58 230.83C283.29 232.71 286.26 232.55 286.23 230.33C285.53 172.14 257.86 118.77 205.28 90.78ZM283.74 45.46C281.4 44.46 279.33 47.7 281.69 48.96C316.74 67.77 362.25 95.06 358.44 138.75C346.75 113.23 315.79 93.15 293.17 81.36C292.08 80.8 291.27 82.28 292.23 82.98C304.71 92.18 316.81 101.97 328.22 112.48C339.92 123.27 353.25 136.7 356.13 152.96C356.72 156.29 361.61 155.89 362.45 152.96C377.82 99.1 326.75 63.99 283.74 45.46ZM232.77 0.48L231.1 0.48C230.94 0.48 230.94 0.72 231.1 0.72L232.77 0.72C232.93 0.72 232.93 0.48 232.77 0.48ZM386.07 61.73C371.25 44.32 353.9 32.44 332.36 24.85C317.07 19.46 299.65 17.32 283.7 14.5C268.41 11.81 253.25 11.32 237.76 12.09C235.39 12.2 235.41 15.59 237.76 15.75C256.9 17.1 276.05 20.43 294.87 24.12C313.4 27.74 331.67 31.09 348.58 39.83C373.86 52.89 394.51 80.28 407.36 104.96C413.37 116.48 417.5 128.56 420.02 140.89C411.44 127.88 399.06 116.45 389.08 107.32C387.4 105.78 384.25 107.9 385.77 109.87C393.06 119.32 400.19 128.81 406.99 138.61C415.76 151.23 417.11 164.24 422.08 178.11C422.24 178.58 422.51 178.98 422.83 179.34C422.56 184.74 422.05 190.13 421.27 195.5C415.72 177.16 403.29 159.7 394.44 144.35C393.04 141.94 389.5 144.06 390.73 146.52C397.05 159.09 403.69 171.38 408.56 184.62C413.2 197.24 413.41 209.74 415.19 222.8C413.53 228.31 411.62 233.76 409.49 239.11C408.04 216.58 397.87 193.07 389.04 174.55C388.22 172.84 385.35 174.05 385.97 175.84C390.57 189.18 395.59 202.21 398.77 216C402.87 233.74 399.26 251.57 394.85 268.71C392.12 273.28 389.23 277.73 386.18 282.03C334.65 354.76 233.67 393.08 145.98 374.93C132.34 353.74 128.77 330.24 127.67 305.25C127.59 303.39 124.85 303.38 124.78 305.25C123.89 329.27 124.86 351.51 135.34 372.44C131.56 371.45 127.81 370.38 124.1 369.17C124.07 369.13 124.05 369.09 124.02 369.05C98.34 339.75 82.55 307.8 79.27 268.63C79.13 266.94 76.59 266.89 76.62 268.63C77.16 303.94 86.85 336.19 108.4 363.27C96.85 358.33 85.73 352.22 75.24 344.87C75.73 343.47 75.61 341.83 74.44 340.39C52.05 313.11 51.91 273.81 52.76 240.32C52.8 238.44 50.01 238.49 49.87 240.32C47.53 270.29 44.66 303.67 58.08 331.09C46.66 320.45 37.28 308.32 29.83 295.17C30.2 294.41 30.36 293.52 30.14 292.55C26.71 277.31 24.6 264.44 26.84 248.8C28.44 237.69 31.33 226.62 30.37 215.35C30.3 214.55 29.28 214.42 28.99 215.16C23.38 229.87 17.43 248.32 16.88 265.91C3.15 224.66 4.65 177.74 18.67 136.41C31.98 97.21 57.66 65.58 91.72 42.42C126.62 18.7 166.14 8.72 207.8 6.45C208.72 6.4 209.02 4.94 208.02 4.77C152.69 -4.83 92.1 27.46 54.21 65.69C15.64 104.6 -1.94 162.47 0.17 216.39C2.27 270.25 27.29 321.56 71.3 353.23C115.9 385.34 174.02 395.34 227.72 387.42C324.95 373.08 418.96 301.6 431.15 199.4C437.31 147.64 419.23 100.67 386.07 61.73ZM162.38 208.83C112.42 194.62 83.24 151.87 44.26 121.02C43.1 120.11 41.44 121.69 42.6 122.68C62.43 139.48 80.04 158.66 99.51 175.85C117.13 191.4 138.01 207.23 161.82 210.88C163.14 211.08 163.73 209.21 162.38 208.83ZM234.92 138.37C214.19 116.41 194.33 91.6 169.07 74.66C168.5 74.28 167.8 75.18 168.33 75.62C192.1 95.01 210.05 120.19 233.28 140C234.41 140.96 235.95 139.47 234.92 138.37ZM94.36 35.26C94.47 34.98 94 34.78 93.87 35.05C84.32 55.59 73.65 76.74 82.88 99.34C83.15 100.01 84.23 99.76 83.99 99.03C76.44 76.09 85.59 56.23 94.36 35.26ZM118.97 20.06C106.58 32.84 100.89 49.83 98.73 67.19C98.63 67.98 99.95 68.14 100.11 67.37C103.63 50.11 109.24 34.94 120 20.85C120.46 20.25 119.48 19.53 118.97 20.06ZM165.98 6.76C151.58 12.44 142.97 28.5 140.13 43.01C139.97 43.83 141.2 44.19 141.4 43.36C144.88 29.03 152.64 14.36 166.32 7.56C166.76 7.34 166.45 6.58 165.98 6.76ZM197.65 5.4C187.23 13.68 181.35 26.11 180.02 39.19C179.93 40.02 181.37 40.22 181.49 39.39C183.33 26.34 189.32 15.56 198.55 6.31C199.15 5.71 198.28 4.9 197.65 5.4ZM141.46 14.55C132.83 22.96 125.21 32.25 122.74 44.33C122.55 45.23 123.86 45.61 124.13 44.71C127.47 33.29 134.63 24.29 142.74 15.83C143.55 14.98 142.3 13.73 141.46 14.55ZM76.05 113.68C71.55 102.76 69.11 92.16 69.85 80.29C70.43 70.89 73.82 61.89 74.27 52.52C74.28 52.31 74 52.3 73.93 52.47C66.46 72.38 64.71 95.03 74.88 114.18C75.21 114.81 76.33 114.36 76.05 113.68ZM379.97 208.21C379.65 207.58 378.57 208.02 378.83 208.69C385.81 226.93 382.63 247.87 378.06 266.28C375.48 276.72 371.72 286.87 367.21 296.62C363.59 304.42 358.17 310.98 354.26 318.5C353.52 319.92 355.22 321.13 356.39 320.15C363.35 314.36 367.56 304.01 371.23 295.97C375.83 285.86 379.19 275.21 381.78 264.42C386.07 246.54 388.56 225.19 379.97 208.21ZM15.62 190.87C10.1 205.68 3.7 221.84 3.69 237.85C3.69 239.05 5.56 239.36 5.81 238.14C9.05 222.22 13.28 207.08 17.91 191.5C18.35 190.01 16.15 189.46 15.62 190.87ZM129.94 376.2C125.46 365.4 120.51 354.98 117.07 343.78C113 330.55 111.69 316.93 110.79 303.19C110.73 302.31 109.45 302.3 109.41 303.19C108.33 328.27 115.24 355.36 127.71 377.14C128.38 378.3 130.48 377.5 129.94 376.2ZM99.89 366.73C75.34 341.77 62.32 306.3 67.81 271.29C67.89 270.81 67.17 270.58 67.06 271.08C59.56 304.57 72.55 345.35 98.98 367.64C99.6 368.17 100.47 367.33 99.89 366.73ZM178.57 385.38C162.85 372.29 155.3 354.9 151.76 335.09C151.7 334.72 151.04 334.8 151.09 335.19C153.41 355.12 161.37 374.14 177.76 386.43C178.37 386.89 179.16 385.86 178.57 385.38ZM203.7 384.06C183.6 374.67 174.36 356.73 165.09 337.66C164.91 337.28 164.25 337.56 164.41 337.95C171.48 356.54 182.49 379.22 203.29 385.03C203.86 385.19 204.26 384.32 203.7 384.06Z" />
	</g>
</svg>