<svg xmlns="http://www.w3.org/2000/svg" viewBox="0 0 494 494" width="494" height="494">
	<defs>
		<clipPath clipPathUnits="userSpaceOnUse" id="cp1">
			<path d="M0 0L494 0L494 494L0 494Z" />
		</clipPath>
	</defs>
	<style>
		tspan { white-space:pre }
		.shp0 { fill: #ffffff } 
	</style>
	<g id="Page 1" clip-path="url(#cp1)">
		<path id="Path 1" class="shp0" d="M220.29 19.74C234.96 4.27 258.98 4.27 273.65 19.74C288.33 35.21 317.06 42.91 337.51 36.85C357.95 30.79 378.75 42.8 383.73 63.53C388.7 84.26 409.74 105.3 430.47 110.27C451.2 115.25 463.21 136.05 457.15 156.49C451.09 176.94 458.79 205.67 474.26 220.35C489.73 235.02 489.73 259.04 474.26 273.71C458.79 288.39 451.09 317.12 457.15 337.57C463.21 358.01 451.2 378.81 430.47 383.78C409.74 388.76 388.7 409.79 383.73 430.53C378.75 451.26 357.95 463.27 337.51 457.21C317.06 451.15 288.33 458.85 273.65 474.32C258.98 489.79 234.96 489.79 220.29 474.32C205.61 458.85 176.88 451.15 156.43 457.21C135.99 463.27 115.19 451.26 110.22 430.53C105.24 409.79 84.21 388.76 63.47 383.78C42.74 378.81 30.73 358.01 36.79 337.57C42.85 317.12 35.15 288.39 19.68 273.71C4.21 259.04 4.21 235.02 19.68 220.35C35.15 205.67 42.85 176.94 36.79 156.49C30.73 136.05 42.74 115.25 63.47 110.27C84.21 105.3 105.24 84.26 110.22 63.53C115.19 42.8 135.99 30.79 156.43 36.85C176.88 42.91 205.61 35.21 220.29 19.74Z" />
	</g>
</svg>