<svg xmlns="http://www.w3.org/2000/svg" viewBox="0 0 494 494" width="494" height="494">
	<defs>
		<clipPath clipPathUnits="userSpaceOnUse" id="cp1">
			<path d="M0 0L494 0L494 494L0 494Z" />
		</clipPath>
	</defs>
	<style>
		tspan { white-space:pre }
		.shp0 { fill: none;stroke: #ffffff;stroke-width: 4 } 
	</style>
	<g id="Page 1" clip-path="url(#cp1)">
		<path id="Path 2" class="shp0" d="M219.61 13.95C234.66 -1.91 259.28 -1.91 274.33 13.95C289.38 29.82 318.85 37.71 339.81 31.5C360.78 25.29 382.1 37.6 387.2 58.86C392.31 80.12 413.88 101.69 435.14 106.8C456.4 111.9 468.71 133.22 462.5 154.19C456.29 175.15 464.18 204.62 480.05 219.67C495.91 234.72 495.91 259.34 480.05 274.39C464.18 289.44 456.29 318.91 462.5 339.87C468.71 360.83 456.4 382.16 435.14 387.26C413.88 392.37 392.31 413.94 387.2 435.2C382.1 456.46 360.78 468.77 339.81 462.56C318.85 456.35 289.38 464.24 274.33 480.1C259.28 495.97 234.66 495.97 219.61 480.1C204.56 464.24 175.09 456.35 154.13 462.56C133.17 468.77 111.84 456.46 106.74 435.2C101.63 413.94 80.06 392.37 58.8 387.26C37.54 382.16 25.23 360.83 31.44 339.87C37.65 318.91 29.76 289.44 13.9 274.39C-1.97 259.34 -1.97 234.72 13.9 219.67C29.76 204.62 37.65 175.15 31.44 154.19C25.23 133.22 37.54 111.9 58.8 106.8C80.06 101.69 101.63 80.12 106.74 58.86C111.84 37.6 133.17 25.29 154.13 31.5C175.09 37.71 204.56 29.82 219.61 13.95Z" />
	</g>
</svg>